PathFileType	4	(X/Y/Z)	7_coords_data.trc
DataRate	CameraRate	NumFrames	NumMarkers	Units	OrigDataRate	OrigDataStartFrame	OrigNumFrames
30.0	30.0	8	21	m	30.0	1	56
Frame#	Time	THUMB_TIP	THUMB_IP	THUMB_MCP	THUMB_CMC	INDEX_TIP	INDEX_DIP	INDEX_PIP	INDEX_MCP	MIDDLE_TIP	MIDDLE_DIP	MIDDLE_PIP	MIDDLE_MCP	RING_TIP	RING_DIP	RING_PIP	RING_MCP	PINKY_TIP	PINKY_DIP	PINKY_PIP	PINKY_MCP	WRIST
X1	Y1	Z1	X2	Y2	Z2	X3	Y3	Z3	X4	Y4	Z4	X5	Y5	Z5	X6	Y6	Z6	X7	Y7	Z7	X8	Y8	Z8	X9	Y9	Z9	X10	Y10	Z10	X11	Y11	Z11	X12	Y12	Z12	X13	Y13	Z13	X14	Y14	Z14	X15	Y15	Z15	X16	Y16	Z16	X17	Y17	Z17	X18	Y18	Z18	X19	Y19	Z19	X20	Y20	Z20	X21	Y21	Z21
0	-2.749317978547796e-18	0.484416002572583	-0.03063149020263034	-0.1732718418617301	0.48107946021647774	-0.03258102316540801	-0.15062086381810125	0.46665071659747137	-0.0323366906660536	-0.12304240013342971	0.4661430793889856	-0.033295974387923755	-0.07844742194972032	0.569404520686809	0.023830959105557548	-0.17080765147330484	0.553974220049663	0.023405600586657194	-0.1613353290348693	0.5341309098170995	0.019465044723949165	-0.14641135866813648	0.5059167333794717	0.0010065970631480958	-0.12039440166121718	0.596343073816078	0.04172391138314924	-0.13607165461978166	0.5803912569059104	0.03653386296398897	-0.12924502040728236	0.5548002072099342	0.027420267512607954	-0.11868802730286854	0.5177942910412594	0.007792918995594311	-0.10314848806553267	0.6004054461762313	0.036847472798300474	-0.11263083267405327	0.5848489319866347	0.0315105863793359	-0.10524757393417716	0.5629890554281739	0.024520333728410226	-0.09557999183082366	0.5309523536361841	0.0026176567696384323	-0.08423788821946432	0.6025897646561793	0.018794605095280303	-0.05841963035103925	0.5862698070228662	0.013634584610216938	-0.05860176063570599	0.5665927274856583	0.006494083124699901	-0.06022589068644624	0.5331220467951253	-0.00623826548561901	-0.06452522598131483	0.4622830810018608	-0.023011742144276925	-0.051989820119430985
1	0.03333333333333339	0.4848893097035297	-0.030949620899159314	-0.1730404201829273	0.48139083948927675	-0.03282423744691809	-0.1504075564896415	0.4666521835155224	-0.032682047102470135	-0.12299274658708581	0.46686675751572326	-0.033151730277785285	-0.07838755231878058	0.5704453134165585	0.022383904712764524	-0.170142448554516	0.5549968848090596	0.02213508242576978	-0.16069341997859837	0.5347542413724918	0.01845307815145758	-0.1462473802367198	0.5061161263792412	0.00021476471318593315	-0.12054021418208216	0.5970384623180303	0.04065035986472376	-0.13612789675358644	0.5810359589336584	0.03569122317485274	-0.1292484455600429	0.5552993486340699	0.027070777529489276	-0.11863127281196872	0.5186616188777058	0.0071818643665783055	-0.10256093328544269	0.6013115141113321	0.03581632808637314	-0.11230675611030005	0.585684376069209	0.030589289402960462	-0.10499439512259323	0.5638338990483622	0.023412291889245096	-0.0954430947059185	0.5311224370352723	0.0026876582670691818	-0.08381680345751275	0.6027850659380771	0.018178755291685444	-0.05791878772085679	0.586543532350729	0.012786539588684587	-0.058288377416806036	0.5668341695324502	0.00571089583257689	-0.059801090784931565	0.5333570080360499	-0.006982710405053938	-0.06416405649966217	0.4622830810018609	-0.023011742144276925	-0.051989820119430985
2	0.06666666666666676	0.48511927007238054	-0.031213789176508744	-0.17285765347481574	0.48151628503422816	-0.03303045179157893	-0.15023646350262687	0.4665629103580271	-0.032962462541613835	-0.12293789278445488	0.46737437813873983	-0.033040010848622514	-0.07833715841492972	0.571126152593288	0.02140233728538843	-0.16970972917153632	0.5556740589307784	0.021233637911716396	-0.16026492414621407	0.5351674185657301	0.017687259677684808	-0.14616135242271938	0.5062497609664588	-0.0003969442357770747	-0.12065906347079125	0.5974805323343195	0.03992806178807262	-0.13620145749400164	0.5814525525905595	0.03511939843064704	-0.12927465288808349	0.5556339044210857	0.02681840430629112	-0.11860223735792608	0.51930299344053	0.006701192297915104	-0.10212465836910034	0.6019209147446372	0.035090865304166385	-0.11208726279855208	0.5862487937849351	0.029920944125826576	-0.10483078020474512	0.5644206992121557	0.022568628530707513	-0.09536200405829554	0.5312440053903602	0.0027213351253999596	-0.08352508023753547	0.6029021710498128	0.017741414982453185	-0.057536263377852004	0.5867289932228825	0.012159520063793172	-0.05805661719548838	0.5670018172407408	0.005118118271454364	-0.05949509123712449	0.5335259389004813	-0.007558073678296973	-0.06391811938548597	0.4622830810018609	-0.023011742144276925	-0.051989820119430985
3	0.10000000000000014	0.48516871035893905	-0.031417960371414644	-0.17273436040309376	0.4815104102828458	-0.03319162711262624	-0.15011863696022382	0.46642839399022284	-0.033172904381006396	-0.1228908490587366	0.46771063771369925	-0.03295660837666292	-0.07830162315076516	0.5715086903646583	0.020836409105078113	-0.169484408951112	0.5560652698865293	0.020659583410723603	-0.1600255772785678	0.5354016303269556	0.017143409455893877	-0.14614536280358947	0.5063238865228208	-0.0008449471865843439	-0.12075757175032709	0.5977025006663166	0.039530475012144795	-0.13630884281948374	0.5816715886966216	0.03479359693067641	-0.12933949224276609	0.5558203596258368	0.02666474541531727	-0.11861357603150202	0.5197431622809278	0.006343098976324901	-0.10183220425369233	0.6022844517137159	0.034650511453330424	-0.11197384350733885	0.5865913012165991	0.029488455551962	-0.10475732035931318	0.564796805321677	0.021970059406271614	-0.09534171378922474	0.5313225724304702	0.0027241638810597824	-0.08335038059487587	0.6029602582672813	0.017454880088111913	-0.057270584478601116	0.586843377124485	0.011724040097895294	-0.0579058916763473	0.5671093417135293	0.004692742553421558	-0.059298989031244864	0.533640174522045	-0.007982120427829642	-0.0637762813954964	0.4622830810018609	-0.023011742144276925	-0.051989820119430985
4	0.13333333333333353	0.48508242015967173	-0.03156047707733334	-0.17267308666911585	0.48141078084648325	-0.03330435807381249	-0.1500572085339656	0.4662761982883584	-0.03331344269857317	-0.12285859959415224	0.467909372355533	-0.03289717687753946	-0.07828226657726378	0.5716410093605044	0.020633988178648366	-0.16943915195263592	0.5562173817658814	0.02037135337556517	-0.15995006691862995	0.535482962309962	0.016795915975045594	-0.146191072397919	0.5063443259536927	-0.0011474098894231899	-0.12084125933709755	0.5977316161751141	0.03942992703148773	-0.13645798415511212	0.581718242771267	0.03468995322097013	-0.1294505223817899	0.5558750081746147	0.02660654751774716	-0.11867112871519192	0.5200074459573857	0.006096213634399272	-0.10167136090540119	0.6024434698860097	0.03446450847954796	-0.11196419409976555	0.5867510885722313	0.029266706382840124	-0.10477169647609963	0.5650000805973425	0.021590033488603444	-0.09538328210778246	0.531363145376228	0.002701484909467422	-0.08327955724705605	0.6029745687708703	0.01729277332914192	-0.05711770953263495	0.5869009665062135	0.011451007567511273	-0.05783400767158264	0.5671682547539406	0.004411351200103386	-0.05920343971828057	0.5337090465571442	-0.008273420319754532	-0.0637268686535506	0.4622830810018609	-0.023011742144276925	-0.051989820119430985
5	0.1666666666666669	0.4848920282582574	-0.03164363348794608	-0.17267036635366156	0.48124248435830264	-0.03336938450890847	-0.15004952170241226	0.46612080708779546	-0.03338862245112073	-0.12284374094853201	0.4679972464491968	-0.03285749139272909	-0.0782782063380082	0.5715621160939107	0.020741481412814955	-0.1695455801442719	0.5561687487130135	0.02032763780388147	-0.16001284841910096	0.5354340271519984	0.016618222815473427	-0.14628982414487673	0.5063165406986484	-0.0013237606888528708	-0.12091477134553341	0.5975909089107205	0.039597585708389116	-0.13665053933206223	0.5816140536646484	0.034785016526267754	-0.12960928416601747	0.5558138225138309	0.02663697904973672	-0.1187756740638658	0.5201213292848177	0.005946515897644611	-0.10162637137691188	0.6024320195202193	0.03449591908817018	-0.11205295215180089	0.5867596710339927	0.029225992168372628	-0.10486926485443981	0.5650609772504117	0.02139801740810776	-0.09548473086286402	0.5313703580706315	0.002658526226526736	-0.0832988996011701	0.6029574030861593	0.017229646572806234	-0.057071909012919364	0.5869140344012745	0.011311565915028576	-0.05783783496814998	0.5671884771026724	0.00425026680445828	-0.05919888718266153	0.533740367443936	-0.008451035340847457	-0.06375787117811516	0.4622830810018609	-0.023011742144276925	-0.051989820119430985
6	0.20000000000000023	0.4846201569391271	-0.03167278532370188	-0.17271851461302123	0.48102203761086504	-0.033390647975979015	-0.15008883310382848	0.465967740194703	-0.0334064040541614	-0.12284570771315906	0.4679964102929002	-0.032833500504356516	-0.07828736080536525	0.5713056045037623	0.021104334551252157	-0.16977493120435228	0.5559525062371515	0.02048724596243945	-0.16018840027343934	0.5352752529963948	0.016583173161901277	-0.14643270156396954	0.5062457112440012	-0.0013942876926436032	-0.12098210823357036	0.5973004954901782	0.04000360366623512	-0.136883843070295	0.5813781363770709	0.03505543504716946	-0.12981319192697394	0.5556524380863332	0.02674672688428914	-0.11892451128522408	0.5201102841688301	0.005878159616936163	-0.10167904474724687	0.6022792195009485	0.03470420998930779	-0.11223262793698474	0.5866433224606401	0.029333991001629145	-0.10504378437426554	0.5650048420243837	0.021361368641169776	-0.0956420060261417	0.5313485983438573	0.00260043103911356	-0.083394340305328	0.602919005818719	0.017240634196563853	-0.05712644171369463	0.5868935676177309	0.011276958142888427	-0.057913777978024106	0.5671788422551848	0.004185644096895147	-0.059275720700930234	0.5337408784533417	-0.008534305491131766	-0.06385708624677966	0.4622830810018609	-0.023011742144276925	-0.051989820119430985
7	0.23333333333333361	0.4842838878239637	-0.031655324950051744	-0.17280717684098484	0.4807606544045273	-0.03337422208170138	-0.150165793956475	0.46581697727533866	-0.03337700034779889	-0.12286182893049757	0.4679264362900444	-0.03282130243804715	-0.07830701569445786	0.5709025693905794	0.021667406905380937	-0.17009846714991644	0.5555991540559526	0.020808903124503453	-0.16045126805618293	0.5350259002317092	0.016663262260513623	-0.1466105772529726	0.5061368185559214	-0.0013798110670000252	-0.12104684202457483	0.5968786253801251	0.04061731290489734	-0.1371525327529598	0.5810280939898231	0.03547773369939988	-0.13005708489990186	0.5554061980916183	0.026924900533260798	-0.11911281491905101	0.5199997267621714	0.005874177774130351	-0.10180972905798868	0.6020114236652359	0.03504692094969042	-0.11249451576339142	0.58642530971417	0.029556859364047283	-0.10528811057840237	0.5648540507809195	0.02144636819565804	-0.0958498533217822	0.531302122143114	0.002532285322297767	-0.08355162630553048	0.6028683259103859	0.017301167718207666	-0.05727406485686437	0.5868498376752287	0.011318415870410603	-0.058058102475739504	0.5671475214717551	0.004193526637342737	-0.059424377936564854	0.5337166430095084	-0.008542702132963487	-0.06401221979880423	0.4622830810018609	-0.023011742144276925	-0.051989820119430985
